<svg xmlns="http://www.w3.org/2000/svg" width="1280" height="420" viewBox="0 0 1280 420" role="img" aria-labelledby="title description">
  <title id="title">Appointly</title>
  <desc id="description">A shared scheduling board with availability marks</desc>
  <defs>
    <linearGradient id="background" x1="0" y1="0" x2="1" y2="1">
      <stop offset="0" stop-color="#141a2e"/>
      <stop offset="0.55" stop-color="#211a55"/>
      <stop offset="1" stop-color="#3d2bd5"/>
    </linearGradient>
    <linearGradient id="glow" x1="0" y1="0" x2="1" y2="1">
      <stop offset="0" stop-color="#a99bff" stop-opacity=".45"/>
      <stop offset="1" stop-color="#4fc79f" stop-opacity=".08"/>
    </linearGradient>
    <filter id="shadow" x="-20%" y="-20%" width="140%" height="140%">
      <feDropShadow dx="0" dy="16" stdDeviation="18" flood-color="#080a12" flood-opacity=".35"/>
    </filter>
  </defs>
  <rect width="1280" height="420" rx="28" fill="url(#background)"/>
  <circle cx="1120" cy="35" r="310" fill="url(#glow)"/>
  <circle cx="40" cy="450" r="230" fill="#4fc79f" opacity=".06"/>
  <g fill="none" stroke="#a99bff" stroke-opacity=".14">
    <path d="M0 84h1280M0 168h1280M0 252h1280M0 336h1280"/>
    <path d="M160 0v420M320 0v420M480 0v420M640 0v420M800 0v420M960 0v420M1120 0v420"/>
  </g>
  <g transform="translate(74 76)">
    <text x="0" y="84" fill="#ffffff" font-family="Arial, Helvetica, sans-serif" font-size="76" font-weight="750" letter-spacing="-3">Appointly</text>
    <text x="2" y="132" fill="#c9c4ff" font-family="Arial, Helvetica, sans-serif" font-size="24" font-weight="500">Find the time everyone can make.</text>
    <text x="2" y="186" fill="#aeb5ce" font-family="Arial, Helvetica, sans-serif" font-size="18">Self-hosted scheduling · live answers · no guest accounts</text>
    <g transform="translate(2 224)">
      <rect width="62" height="34" rx="17" fill="#4fc79f" fill-opacity=".16" stroke="#4fc79f"/>
      <circle cx="18" cy="17" r="5" fill="#4fc79f"/>
      <text x="31" y="22" fill="#c9f6e7" font-family="monospace" font-size="13">YES</text>
      <rect x="76" width="58" height="34" rx="17" fill="#ff8a7a" fill-opacity=".14" stroke="#ff8a7a"/>
      <circle cx="94" cy="17" r="5" fill="#ff8a7a"/>
      <text x="107" y="22" fill="#ffd5cf" font-family="monospace" font-size="13">NO</text>
      <rect x="148" width="86" height="34" rx="17" fill="#a99bff" fill-opacity=".14" stroke="#a99bff"/>
      <text x="166" y="22" fill="#dedaff" font-family="monospace" font-size="13">OPEN</text>
    </g>
  </g>
  <g transform="translate(790 58)" filter="url(#shadow)">
    <rect width="410" height="304" rx="18" fill="#fbfbfd"/>
    <rect width="410" height="56" rx="18" fill="#ffffff"/>
    <path d="M0 56h410" stroke="#cfd3e2"/>
    <circle cx="28" cy="28" r="6" fill="#3d2bd5"/>
    <text x="46" y="34" fill="#141a2e" font-family="Arial, Helvetica, sans-serif" font-size="17" font-weight="700">Release planning</text>
    <g font-family="monospace" font-size="12" fill="#4b5573">
      <text x="24" y="91">OPTION</text><text x="236" y="91">ADA</text><text x="304" y="91">LIN</text><text x="365" y="91">SAM</text>
    </g>
    <g font-family="Arial, Helvetica, sans-serif" font-size="15" fill="#141a2e">
      <text x="24" y="132">Tue, Aug 11 · 10:00</text><text x="24" y="186">Wed, Aug 12 · 14:30</text><text x="24" y="240">Fri, Aug 14 · 09:00</text>
    </g>
    <g stroke="#e7e9f0"><path d="M18 151h374M18 205h374M18 259h374"/></g>
    <g>
      <circle cx="252" cy="126" r="13" fill="#e2f3ed"/><path d="m246 126 4 4 8-9" fill="none" stroke="#0f7b5f" stroke-width="2.5"/>
      <circle cx="320" cy="126" r="13" fill="#e2f3ed"/><path d="m314 126 4 4 8-9" fill="none" stroke="#0f7b5f" stroke-width="2.5"/>
      <circle cx="376" cy="126" r="13" fill="#e2f3ed"/><path d="m370 126 4 4 8-9" fill="none" stroke="#0f7b5f" stroke-width="2.5"/>
      <circle cx="252" cy="180" r="13" fill="#e2f3ed"/><path d="m246 180 4 4 8-9" fill="none" stroke="#0f7b5f" stroke-width="2.5"/>
      <circle cx="320" cy="180" r="13" fill="#fbe9e7"/><path d="m315 175 10 10m0-10-10 10" stroke="#c0392b" stroke-width="2"/>
      <circle cx="376" cy="180" r="13" fill="#e2f3ed"/><path d="m370 180 4 4 8-9" fill="none" stroke="#0f7b5f" stroke-width="2.5"/>
      <circle cx="252" cy="234" r="13" fill="#fbe9e7"/><path d="m247 229 10 10m0-10-10 10" stroke="#c0392b" stroke-width="2"/>
      <circle cx="320" cy="234" r="13" fill="#e2f3ed"/><path d="m314 234 4 4 8-9" fill="none" stroke="#0f7b5f" stroke-width="2.5"/>
      <circle cx="376" cy="234" r="13" fill="#fbe9e7"/><path d="m371 229 10 10m0-10-10 10" stroke="#c0392b" stroke-width="2"/>
    </g>
    <rect x="18" y="272" width="374" height="18" rx="9" fill="#ece9ff"/>
    <rect x="18" y="272" width="290" height="18" rx="9" fill="#3d2bd5"/>
  </g>
</svg>
